<svg viewBox="0 0 760 390" xmlns="http://www.w3.org/2000/svg" font-family="monospace" font-size="13">

  <rect width="760" height="390" fill="#0d1117" rx="10"/>

  <text x="30" y="30" fill="#e6edf3" font-size="15" font-weight="bold">Modèle carburant — Équation de Breguet</text>

  <!-- Formula -->
  <rect x="30" y="45" width="700" height="52" rx="6" fill="#161b22" stroke="#30363d" stroke-width="1"/>
  <text x="46" y="68" fill="#79c0ff" font-size="13" font-weight="bold">m_fuel = W₀ × ( 1 − exp( −R × TSFC / (L/D × V) ) )</text>
  <text x="46" y="87" fill="#8b949e" font-size="11">W₀ = (m_OEW + m_payload + m_phases + m_fuel) × g    ← dépendance circulaire → résolution itérative</text>

  <!-- LEFT: iterative convergence -->
  <text x="30" y="125" fill="#e6edf3" font-size="13" font-weight="bold">Convergence itérative (point fixe, 4 passes)</text>

  <rect x="30" y="135" width="330" height="26" rx="4" fill="#21262d"/>
  <rect x="30" y="135" width="32"  height="26" rx="4" fill="#1f6feb" opacity="0.5"/>
  <text x="46"  y="153" fill="#8b949e" font-size="11">iter 0 (init)</text>
  <text x="240" y="153" fill="#58a6ff" font-size="11">5 000 kg</text>

  <rect x="30" y="167" width="330" height="26" rx="4" fill="#21262d"/>
  <rect x="30" y="167" width="152" height="26" rx="4" fill="#1f6feb" opacity="0.6"/>
  <text x="46"  y="185" fill="#8b949e" font-size="11">iter 1</text>
  <text x="240" y="185" fill="#58a6ff" font-size="11">~23 000 kg</text>

  <rect x="30" y="199" width="330" height="26" rx="4" fill="#21262d"/>
  <rect x="30" y="199" width="198" height="26" rx="4" fill="#1f6feb" opacity="0.75"/>
  <text x="46"  y="217" fill="#8b949e" font-size="11">iter 2</text>
  <text x="240" y="217" fill="#58a6ff" font-size="11">~30 000 kg</text>

  <rect x="30" y="231" width="330" height="26" rx="4" fill="#21262d"/>
  <rect x="30" y="231" width="214" height="26" rx="4" fill="#1f6feb" opacity="0.85"/>
  <text x="46"  y="249" fill="#8b949e" font-size="11">iter 3</text>
  <text x="240" y="249" fill="#58a6ff" font-size="11">~32 500 kg</text>

  <rect x="30" y="263" width="330" height="26" rx="4" fill="#21262d"/>
  <rect x="30" y="263" width="220" height="26" rx="4" fill="#3fb950" opacity="0.8"/>
  <text x="46"  y="281" fill="#8b949e" font-size="11">iter 4 ✓ convergé</text>
  <text x="240" y="281" fill="#3fb950" font-size="11">~33 200 kg</text>

  <text x="30" y="310" fill="#8b949e" font-size="11">Exemple : CDG→JFK  R=5 800 km  L/D=17  V=840 km/h</text>

  <!-- ICAO reserve -->
  <rect x="30" y="325" width="330" height="52" rx="6" fill="#161b22" stroke="#30363d" stroke-width="1"/>
  <text x="46" y="346" fill="#ffa657" font-size="12" font-weight="bold">Réserve ICAO Annexe 6 (+15 %)</text>
  <text x="46" y="365" fill="#8b949e" font-size="11">m_total = min( (m_trip + m_phases) × 1.15,</text>
  <text x="46" y="378" fill="#8b949e" font-size="11">               m_fuel_max )</text>

  <!-- RIGHT: parameters box -->
  <rect x="390" y="125" width="340" height="145" rx="6" fill="#161b22" stroke="#30363d" stroke-width="1"/>
  <text x="406" y="148" fill="#e6edf3" font-size="12" font-weight="bold">Paramètres</text>
  <text x="406" y="168" fill="#8b949e" font-size="11">TSFC</text>
  <text x="406" y="183" fill="#79c0ff" font-size="11">1.8 × 10⁻⁵ kg/(N·s)</text>
  <text x="406" y="203" fill="#8b949e" font-size="11">Finesse L/D typique</text>
  <text x="406" y="218" fill="#79c0ff" font-size="11">15 – 20</text>
  <text x="406" y="238" fill="#8b949e" font-size="11">Réserve réglementaire</text>
  <text x="406" y="253" fill="#ffa657" font-size="11">15 % (ICAO Annexe 6)</text>

  <!-- RIGHT: mass breakdown stacked bar -->
  <text x="390" y="295" fill="#e6edf3" font-size="13" font-weight="bold">Décomposition masse au décollage</text>

  <!-- OEW ~50% -->
  <rect x="430" y="305" width="80" height="60" rx="0" fill="#1f6feb" opacity="0.7"/>
  <text x="470" y="330" fill="#cae8ff" font-size="11" text-anchor="middle">OEW</text>
  <text x="470" y="344" fill="#cae8ff" font-size="10" text-anchor="middle">~90 t</text>
  <!-- Payload ~20% -->
  <rect x="430" y="365" width="80" height="15" rx="0" fill="#3fb950" opacity="0.7"/>
  <text x="470" y="376" fill="#ccffd8" font-size="10" text-anchor="middle">Payload ~20 t</text>

  <!-- Labels right of bars -->
  <line x1="512" y1="335" x2="528" y2="335" stroke="#30363d" stroke-width="0.8"/>
  <text x="532" y="339" fill="#8b949e" font-size="11">Operating Empty Weight</text>

  <line x1="512" y1="372" x2="528" y2="355" stroke="#30363d" stroke-width="0.8"/>
  <text x="532" y="359" fill="#8b949e" font-size="11">Passagers + fret</text>

  <!-- Fuel bar horizontal -->
  <rect x="390" y="308" width="36" height="72" rx="0" fill="#ffa657" opacity="0.8"/>
  <text x="408" y="350" fill="#fff8c5" font-size="9" text-anchor="middle" transform="rotate(-90,408,350)">Fuel ~33 t</text>
  <line x1="390" y1="344" x2="375" y2="344" stroke="#30363d" stroke-width="0.8"/>
  <text x="370" y="348" fill="#ffa657" font-size="11" text-anchor="end">Breguet</text>
  <text x="370" y="360" fill="#ffa657" font-size="11" text-anchor="end">+ 15 % ICAO</text>

</svg>
