<svg viewBox="0 0 760 370" xmlns="http://www.w3.org/2000/svg" font-family="monospace" font-size="13">

  <rect width="760" height="370" fill="#0d1117" rx="10"/>

  <text x="30" y="28" fill="#e6edf3" font-size="15" font-weight="bold">Consommation par phase de vol  —  Δm = ṁ_cruise × k_φ × Δt</text>

  <!-- ── Altitude profile (top half, y=55..190) ── -->
  <!-- Ground line -->
  <line x1="30" y1="190" x2="660" y2="190" stroke="#21262d" stroke-width="1"/>
  <text x="668" y="194" fill="#8b949e" font-size="10">sol</text>

  <!-- Dashed profile outline -->
  <polyline points="60,190 120,190 180,95 420,95 510,190 590,190"
            fill="none" stroke="#30363d" stroke-width="1.2" stroke-dasharray="4 3"/>

  <!-- Phase segments (colored) -->
  <line x1="60"  y1="190" x2="120" y2="190" stroke="#8b949e"  stroke-width="4"/>
  <line x1="120" y1="190" x2="140" y2="160" stroke="#f85149"  stroke-width="4"/>
  <line x1="140" y1="160" x2="180" y2="95"  stroke="#ffa657"  stroke-width="4"/>
  <line x1="180" y1="95"  x2="420" y2="95"  stroke="#3fb950"  stroke-width="4"/>
  <line x1="420" y1="95"  x2="510" y2="190" stroke="#79c0ff"  stroke-width="4"/>
  <line x1="510" y1="190" x2="555" y2="190" stroke="#d2a8ff"  stroke-width="4"/>
  <line x1="555" y1="190" x2="620" y2="190" stroke="#8b949e"  stroke-width="4"/>

  <!-- Altitude axis label -->
  <text x="20" y="140" fill="#8b949e" font-size="10" text-anchor="middle" transform="rotate(-90,20,140)">Altitude</text>

  <!-- ── k_phi bar chart (bottom half, y=210..340) ── -->
  <!-- Scale: k=1.0 → 50px, k=3.30 → 165px max at 50px base -->
  <!-- baseline y=340 -->

  <!-- LINEUP k=0.24 → 12px -->
  <rect x="60"  y="328" width="55" height="12" rx="2" fill="#8b949e"/>
  <text x="87"  y="353" fill="#8b949e" font-size="10" text-anchor="middle">LINEUP</text>
  <text x="87"  y="364" fill="#8b949e" font-size="10" text-anchor="middle">×0.24</text>

  <!-- TAKEOFF k=3.30 → 165px -->
  <rect x="120" y="175" width="28" height="165" rx="2" fill="#f85149" opacity="0.85"/>
  <text x="134" y="353" fill="#f85149" font-size="10" text-anchor="middle">TAKEOFF</text>
  <text x="134" y="364" fill="#f85149" font-size="10" text-anchor="middle">×3.30</text>

  <!-- CLIMBING k=2.47 → 124px -->
  <rect x="158" y="216" width="28" height="124" rx="2" fill="#ffa657" opacity="0.85"/>
  <text x="172" y="353" fill="#ffa657" font-size="10" text-anchor="middle">CLIMB</text>
  <text x="172" y="364" fill="#ffa657" font-size="10" text-anchor="middle">×2.47</text>

  <!-- CRUISE k=1.00 → 50px -->
  <rect x="210" y="290" width="175" height="50" rx="2" fill="#3fb950" opacity="0.85"/>
  <text x="297" y="320" fill="#ccffd8" font-size="10" text-anchor="middle">CRUISE (référence ×1.00)</text>

  <!-- DESCENDING k=0.29 → 15px -->
  <rect x="430" y="325" width="68" height="15" rx="2" fill="#79c0ff"/>
  <text x="464" y="353" fill="#79c0ff" font-size="10" text-anchor="middle">DESCEND</text>
  <text x="464" y="364" fill="#79c0ff" font-size="10" text-anchor="middle">×0.29</text>

  <!-- LANDING k=0.35 → 18px -->
  <rect x="510" y="322" width="40" height="18" rx="2" fill="#d2a8ff"/>
  <text x="530" y="353" fill="#d2a8ff" font-size="10" text-anchor="middle">LANDING</text>
  <text x="530" y="364" fill="#d2a8ff" font-size="10" text-anchor="middle">×0.35</text>

  <!-- TAXI k=0.24 → 12px -->
  <rect x="558" y="328" width="55" height="12" rx="2" fill="#8b949e" opacity="0.7"/>
  <text x="585" y="353" fill="#8b949e" font-size="10" text-anchor="middle">TAXI</text>
  <text x="585" y="364" fill="#8b949e" font-size="10" text-anchor="middle">×0.24</text>

  <!-- Separator line between profile and bars -->
  <line x1="30" y1="205" x2="660" y2="205" stroke="#21262d" stroke-width="0.8" stroke-dasharray="2 4"/>

  <!-- Formula box top-right -->
  <rect x="670" y="45" width="78" height="58" rx="6" fill="#161b22" stroke="#30363d" stroke-width="1"/>
  <text x="679" y="62"  fill="#e6edf3" font-size="10" font-weight="bold">Formule</text>
  <text x="679" y="77"  fill="#79c0ff" font-size="10">Δm = ṁ_cruise</text>
  <text x="679" y="90"  fill="#79c0ff" font-size="10">  × k_φ × Δt</text>

  <!-- Fuel critical alert box -->
  <rect x="670" y="115" width="78" height="62" rx="6" fill="#2d1515" stroke="#f85149" stroke-width="1"/>
  <text x="679" y="132" fill="#f85149" font-size="10" font-weight="bold">⚠ CRITICAL</text>
  <text x="679" y="147" fill="#8b949e" font-size="10">m_fuel /</text>
  <text x="679" y="160" fill="#8b949e" font-size="10">ṁ_cruise</text>
  <text x="679" y="173" fill="#8b949e" font-size="10">&lt; 1800 s</text>

</svg>
