<svg viewBox="0 0 720 310" xmlns="http://www.w3.org/2000/svg" font-family="monospace" font-size="13">

  <rect width="720" height="310" fill="#0d1117" rx="10"/>

  <text x="30" y="30" fill="#e6edf3" font-size="15" font-weight="bold">Consommation par phase de vol  —  Δm = ṁ_cruise × k_φ × Δt</text>

  <!-- Flight profile curve (simplified) -->
  <!-- Altitude profile: ground, climb, cruise, descent, ground -->
  <polyline points="30,220 100,220 160,100 380,100 480,220 560,220"
            fill="none" stroke="#30363d" stroke-width="1.5" stroke-dasharray="4 3"/>

  <!-- Phase segments with color coding -->
  <!-- LINEUP: 30-100 y=220 -->
  <line x1="30" y1="222" x2="100" y2="222" stroke="#8b949e" stroke-width="4"/>
  <!-- TAKEOFF: 100-120 -->
  <line x1="100" y1="222" x2="120" y2="190" stroke="#f85149" stroke-width="4"/>
  <!-- CLIMBING: 120-160 -->
  <line x1="120" y1="190" x2="160" y2="100" stroke="#ffa657" stroke-width="4"/>
  <!-- CRUISE: 160-380 -->
  <line x1="160" y1="100" x2="380" y2="100" stroke="#3fb950" stroke-width="4"/>
  <!-- DESCENDING: 380-480 -->
  <line x1="380" y1="100" x2="480" y2="220" stroke="#79c0ff" stroke-width="4"/>
  <!-- LANDING: 480-520 -->
  <line x1="480" y1="220" x2="530" y2="222" stroke="#d2a8ff" stroke-width="4"/>
  <!-- TAXI: 530-580 -->
  <line x1="530" y1="222" x2="590" y2="222" stroke="#8b949e" stroke-width="4"/>

  <!-- Ground line -->
  <line x1="20" y1="222" x2="610" y2="222" stroke="#21262d" stroke-width="1"/>
  <text x="620" y="226" fill="#8b949e" font-size="10">sol</text>

  <!-- Bars (k_phi multiplier) for each phase, below -->
  <!-- scale: k=1.0 → 40px height, so k=3.30 → 132px, etc. -->
  <!-- LINEUP k=0.24 -->
  <rect x="30" y="256" width="55" height="10" rx="2" fill="#8b949e"/>
  <text x="57"  y="280" fill="#8b949e" font-size="10" text-anchor="middle">LINEUP</text>
  <text x="57"  y="293" fill="#8b949e" font-size="10" text-anchor="middle">×0.24</text>

  <!-- TAKEOFF k=3.30 -->
  <rect x="100" y="224" width="30" height="32" rx="2" fill="#f85149" opacity="0.9"/>
  <text x="115" y="266" fill="#f85149" font-size="10" text-anchor="middle">TKOFF</text>
  <text x="115" y="279" fill="#f85149" font-size="10" text-anchor="middle">×3.30</text>

  <!-- CLIMBING k=2.47 -->
  <rect x="140" y="224" width="36" height="24" rx="2" fill="#ffa657" opacity="0.9"/>
  <text x="158" y="266" fill="#ffa657" font-size="10" text-anchor="middle">CLIMB</text>
  <text x="158" y="279" fill="#ffa657" font-size="10" text-anchor="middle">×2.47</text>

  <!-- CRUISE k=1.00 -->
  <rect x="200" y="230" width="130" height="10" rx="2" fill="#3fb950" opacity="0.9"/>
  <text x="265" y="255" fill="#3fb950" font-size="10" text-anchor="middle">CRUISE  (référence ×1.00)</text>

  <!-- DESCENDING k=0.29 -->
  <rect x="390" y="251" width="72" height="3" rx="2" fill="#79c0ff"/>
  <text x="426" y="264" fill="#79c0ff" font-size="10" text-anchor="middle">DESCEND</text>
  <text x="426" y="277" fill="#79c0ff" font-size="10" text-anchor="middle">×0.29</text>

  <!-- LANDING k=0.35 -->
  <rect x="480" y="250" width="36" height="4" rx="2" fill="#d2a8ff"/>
  <text x="498" y="264" fill="#d2a8ff" font-size="10" text-anchor="middle">LAND</text>
  <text x="498" y="277" fill="#d2a8ff" font-size="10" text-anchor="middle">×0.35</text>

  <!-- TAXI k=0.24 -->
  <rect x="530" y="256" width="50" height="10" rx="2" fill="#8b949e" opacity="0.7"/>
  <text x="555" y="280" fill="#8b949e" font-size="10" text-anchor="middle">TAXI</text>
  <text x="555" y="293" fill="#8b949e" font-size="10" text-anchor="middle">×0.24</text>

  <!-- Formula box -->
  <rect x="610" y="70" width="100" height="55" rx="6" fill="#161b22" stroke="#30363d" stroke-width="1"/>
  <text x="620" y="90" fill="#e6edf3" font-size="10" font-weight="bold">Formule</text>
  <text x="620" y="106" fill="#79c0ff" font-size="10">Δm = ṁ_cruise</text>
  <text x="620" y="118" fill="#79c0ff" font-size="10">  × k_φ × Δt</text>

  <!-- Fuel critical alert -->
  <rect x="610" y="140" width="100" height="55" rx="6" fill="#2d1515" stroke="#f85149" stroke-width="1"/>
  <text x="620" y="158" fill="#f85149" font-size="10" font-weight="bold">⚠ FUEL CRITICAL</text>
  <text x="620" y="174" fill="#8b949e" font-size="10">m_fuel /</text>
  <text x="620" y="187" fill="#8b949e" font-size="10">ṁ_cruise &lt; 1800s</text>

</svg>
