<svg viewBox="0 0 760 360" xmlns="http://www.w3.org/2000/svg" font-family="monospace" font-size="13">

  <rect width="760" height="360" fill="#0d1117" rx="10"/>

  <text x="30" y="30" fill="#e6edf3" font-size="15" font-weight="bold">Vitesse de décrochage Vs et marge de sécurité</text>

  <!-- Wing cross-section -->
  <path d="M60,160 Q190,118 340,155 Q230,176 60,160 Z" fill="#21262d" stroke="#30363d" stroke-width="1.5"/>

  <!-- Lift arrow -->
  <line x1="200" y1="148" x2="200" y2="68" stroke="#3fb950" stroke-width="2.5"/>
  <polygon points="200,60 194,72 206,72" fill="#3fb950"/>
  <text x="212" y="100" fill="#3fb950" font-size="12">L = ½ρV²S·CL_max</text>
  <text x="212" y="116" fill="#3fb950" font-size="11">(portance)</text>

  <!-- Weight arrow -->
  <line x1="200" y1="168" x2="200" y2="240" stroke="#f85149" stroke-width="2.5"/>
  <polygon points="200,248 194,236 206,236" fill="#f85149"/>
  <text x="212" y="210" fill="#f85149" font-size="12">W = mg  (poids)</text>

  <!-- Equilibrium label -->
  <text x="60" y="272" fill="#ffa657" font-size="12">Équilibre L = W  →  résoudre en V :</text>

  <!-- Formula -->
  <rect x="30" y="286" width="330" height="40" rx="6" fill="#161b22" stroke="#30363d" stroke-width="1"/>
  <text x="46" y="306" fill="#79c0ff" font-size="13" font-weight="bold">Vs = √( 2mg / (ρ · S · CL_max) )</text>
  <text x="46" y="320" fill="#8b949e" font-size="10">m=masse totale  S=surface alaire  CL_max=coeff. portance</text>

  <!-- Separator -->
  <line x1="390" y1="45" x2="390" y2="350" stroke="#21262d" stroke-width="1"/>

  <!-- CL_max table — rows wide enough (355px) for content -->
  <text x="405" y="65" fill="#e6edf3" font-size="13" font-weight="bold">CL_max selon configuration</text>

  <rect x="405" y="78" width="330" height="30" rx="4" fill="#1f2d1f"/>
  <text x="420" y="98" fill="#3fb950" font-size="12">Croisière   (ailes propres)      CL_max = 1.4</text>

  <rect x="405" y="114" width="330" height="30" rx="4" fill="#2d2516"/>
  <text x="420" y="134" fill="#ffa657" font-size="12">Décollage   (flaps partiels)     CL_max = 2.0</text>

  <rect x="405" y="150" width="330" height="30" rx="4" fill="#2d1515"/>
  <text x="420" y="170" fill="#f85149" font-size="12">Atterrissage (flaps + slats)     CL_max = 2.7</text>

  <!-- Safety margin box -->
  <rect x="405" y="198" width="330" height="70" rx="6" fill="#161b22" stroke="#30363d" stroke-width="1"/>
  <text x="420" y="218" fill="#e6edf3" font-size="13" font-weight="bold">Marge réglementaire (+30 %)</text>
  <text x="420" y="238" fill="#79c0ff" font-size="12">V_flight = max(V_cruise, 1.3 × Vs)</text>
  <text x="420" y="256" fill="#8b949e" font-size="11">recalculé à chaque tick  (masse ↓ → Vs ↓)</text>

  <!-- Speed bar -->
  <text x="405" y="292" fill="#8b949e" font-size="11">Exemple  (m=65t, ρ=0.78, S=425m², croisière)</text>
  <!-- Scale: 0–900 km/h = 330px -->
  <rect x="405" y="300" width="330" height="12" rx="2" fill="#21262d"/>
  <!-- Vs ~195 km/h → 72px -->
  <rect x="405" y="300" width="72"  height="12" rx="2" fill="#f85149" opacity="0.85"/>
  <!-- 1.3×Vs ~253 km/h → 93px -->
  <rect x="405" y="300" width="93"  height="12" rx="2" fill="#ffa657" opacity="0.65"/>
  <!-- V_cruise 840 km/h → 308px -->
  <rect x="405" y="300" width="308" height="12" rx="2" fill="#1f6feb" opacity="0.45"/>
  <!-- tick marks -->
  <text x="405" y="326" fill="#f85149" font-size="10">Vs ≈195</text>
  <text x="460" y="326" fill="#ffa657" font-size="10">1.3×Vs ≈253</text>
  <text x="655" y="326" fill="#58a6ff" font-size="10" text-anchor="end">V_cruise 840 km/h</text>

</svg>
