<svg viewBox="0 0 720 360" xmlns="http://www.w3.org/2000/svg" font-family="monospace" font-size="13">

  <rect width="720" height="360" fill="#0d1117" rx="10"/>

  <!-- Title -->
  <text x="30" y="30" fill="#e6edf3" font-size="15" font-weight="bold">Vitesse de décrochage Vs et marge de sécurité</text>

  <!-- Wing cross-section diagram -->
  <!-- Wing shape (simplified airfoil) -->
  <path d="M80,160 Q200,120 340,155 Q240,175 80,160 Z" fill="#21262d" stroke="#30363d" stroke-width="1.5"/>

  <!-- Lift arrow (up) -->
  <line x1="210" y1="150" x2="210" y2="70" stroke="#3fb950" stroke-width="2.5"/>
  <polygon points="210,62 204,74 216,74" fill="#3fb950"/>
  <text x="220" y="108" fill="#3fb950" font-size="12">L = ½ρV²S·CL_max</text>
  <text x="220" y="124" fill="#3fb950" font-size="11">(portance)</text>

  <!-- Weight arrow (down) -->
  <line x1="210" y1="170" x2="210" y2="240" stroke="#f85149" stroke-width="2.5"/>
  <polygon points="210,248 204,236 216,236" fill="#f85149"/>
  <text x="220" y="212" fill="#f85149" font-size="12">W = mg</text>
  <text x="220" y="228" fill="#f85149" font-size="11">(poids)</text>

  <!-- Equilibrium label -->
  <text x="80" y="275" fill="#ffa657" font-size="12">Équilibre L = W  →  résoudre en V :</text>

  <!-- Formula -->
  <rect x="30" y="290" width="320" height="52" rx="6" fill="#161b22" stroke="#30363d" stroke-width="1"/>
  <text x="46" y="312" fill="#79c0ff" font-size="13" font-weight="bold">Vs = √( 2mg / (ρ · S · CL_max) )</text>
  <text x="46" y="332" fill="#8b949e" font-size="11">m=masse totale  S=surface alaire  CL_max=coeff. portance</text>

  <!-- Separator -->
  <line x1="380" y1="45" x2="380" y2="350" stroke="#21262d" stroke-width="1"/>

  <!-- CL_max table -->
  <text x="400" y="65" fill="#e6edf3" font-size="13" font-weight="bold">CL_max selon configuration</text>

  <rect x="400" y="78" width="295" height="34" rx="4" fill="#1f2d1f"/>
  <text x="416" y="100" fill="#3fb950" font-size="12">Croisière  (ailes propres)     CL_max = 1.4</text>

  <rect x="400" y="118" width="295" height="34" rx="4" fill="#2d2516"/>
  <text x="416" y="140" fill="#ffa657" font-size="12">Décollage  (flaps partiels)    CL_max = 2.0</text>

  <rect x="400" y="158" width="295" height="34" rx="4" fill="#2d1515"/>
  <text x="416" y="180" fill="#f85149" font-size="12">Atterrissage (flaps + slats)   CL_max = 2.7</text>

  <!-- Safety margin -->
  <rect x="400" y="210" width="295" height="80" rx="6" fill="#161b22" stroke="#30363d" stroke-width="1"/>
  <text x="416" y="232" fill="#e6edf3" font-size="13" font-weight="bold">Marge réglementaire (+30 %)</text>
  <text x="416" y="254" fill="#79c0ff" font-size="12">V_flight = max(V_cruise, 1.3 × Vs)</text>
  <text x="416" y="274" fill="#8b949e" font-size="11">recalculé à chaque tick (masse ↓ → Vs ↓)</text>

  <!-- Speed bar visualisation -->
  <text x="400" y="315" fill="#8b949e" font-size="11">Exemple  (m=65t, ρ=0.78, S=425m², croisière)</text>
  <!-- Scale: 0-900 km/h = 295px -->
  <rect x="400" y="323" width="295" height="12" rx="2" fill="#21262d"/>
  <!-- Vs ~195 km/h => 64px -->
  <rect x="400" y="323" width="64"  height="12" rx="2" fill="#f85149" opacity="0.8"/>
  <!-- 1.3×Vs ~253 km/h => 83px -->
  <rect x="400" y="323" width="83"  height="12" rx="2" fill="#ffa657" opacity="0.6"/>
  <!-- V_cruise 840 km/h => 276px -->
  <rect x="400" y="323" width="276" height="12" rx="2" fill="#1f6feb" opacity="0.5"/>
  <text x="400" y="350" fill="#f85149" font-size="10">Vs</text>
  <text x="430" y="350" fill="#ffa657" font-size="10">1.3×Vs</text>
  <text x="590" y="350" fill="#58a6ff" font-size="10">V_cruise 840 km/h</text>

</svg>
